<svg width="24" height="24" viewBox="0 0 24 24" fill="none" xmlns="http://www.w3.org/2000/svg">
<path d="M11.9935 20.3327H5.32682C4.41016 20.3327 3.66016 19.5827 3.66016 18.666V11.9993C3.66016 7.41601 7.41015 3.66602 11.9935 3.66602C16.5768 3.66602 20.3268 7.41601 20.3268 11.9993C20.3268 16.666 16.6602 20.3327 11.9935 20.3327Z" stroke="white" stroke-width="2" stroke-miterlimit="10" stroke-linecap="round" stroke-linejoin="round"/>
<path d="M7.82161 12.8327C8.28185 12.8327 8.65495 12.4596 8.65495 11.9993C8.65495 11.5391 8.28185 11.166 7.82161 11.166C7.36138 11.166 6.98828 11.5391 6.98828 11.9993C6.98828 12.4596 7.36138 12.8327 7.82161 12.8327Z" fill="white"/>
<path d="M16.1634 12.8327C16.6236 12.8327 16.9967 12.4596 16.9967 11.9993C16.9967 11.5391 16.6236 11.166 16.1634 11.166C15.7032 11.166 15.3301 11.5391 15.3301 11.9993C15.3301 12.4596 15.7032 12.8327 16.1634 12.8327Z" fill="white"/>
<path d="M11.9935 12.8327C12.4537 12.8327 12.8268 12.4596 12.8268 11.9993C12.8268 11.5391 12.4537 11.166 11.9935 11.166C11.5333 11.166 11.1602 11.5391 11.1602 11.9993C11.1602 12.4596 11.5333 12.8327 11.9935 12.8327Z" fill="white"/>
</svg>
