<svg width="48" height="48" viewBox="0 0 48 48" fill="none" xmlns="http://www.w3.org/2000/svg">
<path d="M19.1537 16.7988L16.7227 31.0648H20.6107L23.0437 16.7988H19.1537Z" fill="#272A32"/>
<path d="M13.4613 16.8155L9.65333 26.5445L9.24733 25.0755C8.49633 23.3055 6.36433 20.7635 3.86133 19.1615L7.34333 31.0585L11.4573 31.0515L17.5803 16.8125L13.4613 16.8155Z" fill="#272A32"/>
<path d="M7.772 17.8367C7.546 16.9677 6.891 16.7087 6.078 16.6777H0.05L0 16.9617C4.691 18.0997 7.795 20.8417 9.083 24.1387L7.772 17.8367Z" fill="#272A32"/>
<path d="M30.923 19.5347C32.195 19.5147 33.117 19.7927 33.833 20.0807L34.184 20.2457L34.71 17.1537C33.94 16.8647 32.733 16.5547 31.227 16.5547C27.385 16.5547 24.677 18.4897 24.656 21.2627C24.631 23.3117 26.585 24.4557 28.061 25.1387C29.576 25.8387 30.084 26.2837 30.077 26.9087C30.065 27.8637 28.869 28.3017 27.752 28.3017C26.195 28.3017 25.368 28.0867 24.091 27.5547L23.59 27.3267L23.043 30.5197C23.953 30.9187 25.632 31.2617 27.375 31.2797C31.462 31.2797 34.118 29.3677 34.146 26.4047C34.163 24.7837 33.126 23.5467 30.879 22.5317C29.519 21.8697 28.687 21.4297 28.695 20.7617C28.695 20.1687 29.401 19.5347 30.923 19.5347Z" fill="#272A32"/>
<path d="M44.687 16.8145H41.683C40.75 16.8145 40.056 17.0685 39.646 17.9985L33.873 31.0725H37.956C37.956 31.0725 38.622 29.3145 38.773 28.9295C39.22 28.9295 43.187 28.9355 43.752 28.9355C43.868 29.4335 44.226 31.0725 44.226 31.0725H47.833L44.687 16.8145ZM39.892 26.0095C40.212 25.1905 41.441 22.0225 41.441 22.0225C41.42 22.0615 41.758 21.1975 41.959 20.6605L42.221 21.8905C42.221 21.8905 42.966 25.2965 43.122 26.0095H39.892Z" fill="#272A32"/>
</svg>
