<svg width="537" height="629" viewBox="0 0 537 629" fill="none" xmlns="http://www.w3.org/2000/svg">
<path d="M43.6415 18.5326C44.8533 20.1774 47.1356 20.5019 48.7367 19.257C50.3379 18.0121 50.6538 15.6675 49.442 14.0227C48.2301 12.3779 45.9478 12.0534 44.3467 13.2983C42.7455 14.5432 42.4297 16.8877 43.6415 18.5326Z" fill="#18FFFF"/>
<path d="M416.539 613L479.457 529.868L513.953 526.223" stroke="#18FFFF" stroke-linecap="round" stroke-linejoin="round"/>
<path d="M530.671 532.492C527.56 536.603 521.708 537.399 517.612 534.299C513.515 531.199 512.704 525.335 515.804 521.239C518.904 517.143 524.768 516.331 528.864 519.432C532.96 522.532 533.772 528.395 530.671 532.492Z" stroke="#18FFFF" stroke-linecap="round" stroke-linejoin="round"/>
<path d="M526.151 529.07C524.934 530.678 522.641 530.995 521.033 529.778C519.425 528.561 519.108 526.269 520.325 524.661C521.542 523.053 523.834 522.735 525.442 523.952C527.051 525.17 527.368 527.462 526.151 529.07Z" fill="#18FFFF"/>
<path d="M384.761 106.483L451.131 26.0805L485.75 23.8948" stroke="#18FFFF" stroke-linecap="round" stroke-linejoin="round"/>
<path d="M502.189 30.8628C498.907 34.8392 493.026 35.388 489.065 32.1177C485.103 28.8474 484.539 22.9547 487.81 18.993C491.08 15.0313 496.973 14.4679 500.934 17.7382C504.896 21.0085 505.459 26.9011 502.189 30.8628Z" stroke="#18FFFF" stroke-linecap="round" stroke-linejoin="round"/>
<path d="M497.817 27.2534C496.533 28.8088 494.229 29.029 492.674 27.7451C491.119 26.4613 490.898 24.1577 492.182 22.6024C493.466 21.047 495.77 20.8268 497.325 22.1107C498.88 23.3946 499.101 25.6981 497.817 27.2534Z" fill="#18FFFF"/>
<path d="M119.779 613.379L57.133 528.349L22.7863 524.621" stroke="#18FFFF" stroke-linecap="round" stroke-linejoin="round"/>
<path d="M6.1403 531.032C9.2385 535.237 15.0653 536.052 19.1437 532.881C23.2222 529.71 24.0302 523.713 20.9435 519.523C17.8567 515.333 12.0184 514.503 7.93993 517.674C3.8615 520.845 3.05353 526.843 6.1403 531.032Z" stroke="#18FFFF" stroke-linecap="round" stroke-linejoin="round"/>
<path d="M10.6416 527.532C11.8535 529.177 14.1357 529.502 15.7368 528.257C17.338 527.012 17.6539 524.667 16.4421 523.023C15.2302 521.378 12.9479 521.053 11.3468 522.298C9.74562 523.543 9.42978 525.888 10.6416 527.532Z" fill="#18FFFF"/>
<path d="M39.1402 22.0324C42.2384 26.2376 48.0652 27.0522 52.1436 23.8812C56.222 20.7102 57.0301 14.7126 53.9433 10.5229C50.8566 6.33325 45.0182 5.50322 40.9398 8.6742C36.8614 11.8452 36.0534 17.8427 39.1402 22.0324Z" stroke="#18FFFF" stroke-linecap="round" stroke-linejoin="round"/>
<path d="M152.779 104.379L90.1328 19.3488L55.7861 15.6211" stroke="#18FFFF" stroke-linecap="round" stroke-linejoin="round"/>
</svg>
